<svg width="35" height="35" viewBox="0 0 35 35" fill="none" xmlns="http://www.w3.org/2000/svg">
<path d="M15.1136 4.375C12.9897 4.375 10.9135 5.00481 9.14755 6.18478C7.3816 7.36475 6.00521 9.04188 5.19243 11.0041C4.37965 12.9663 4.16699 15.1255 4.58134 17.2086C4.99569 19.2916 6.01844 21.2051 7.52026 22.7069C9.02208 24.2087 10.9355 25.2315 13.0186 25.6458C15.1017 26.0602 17.2608 25.8475 19.2231 25.0347C21.1853 24.2219 22.8624 22.8456 24.0424 21.0796C25.2223 19.3137 25.8522 17.2375 25.8522 15.1136C25.852 12.2656 24.7205 9.53429 22.7067 7.52046C20.6929 5.50662 17.9616 4.37518 15.1136 4.375V4.375Z" stroke="#373737" stroke-width="2" stroke-miterlimit="10"/>
<path d="M23.1252 23.1254L30.625 30.6251" stroke="#373737" stroke-width="2" stroke-miterlimit="10" stroke-linecap="round"/>
</svg>
